<svg width="76" height="72" viewBox="0 0 76 72" fill="none" xmlns="http://www.w3.org/2000/svg">
<path d="M75.7427 35.6964L37.8714 71.3927L0 35.6964L37.8714 -1.41049e-06L75.7427 35.6964ZM4.84798 35.6964L37.8721 66.8238L70.8962 35.6964L37.8721 4.56888L4.84798 35.6964Z" fill="black"/>
<rect width="66.2308" height="1.60076" transform="matrix(-0.00398266 -0.999992 0.999994 -0.00353834 36.9303 68.4988)" fill="black"/>
<rect width="61.4144" height="1.60076" transform="matrix(-0.00398266 -0.999992 0.999994 -0.00353834 41.0431 66.7993)" fill="black"/>
<rect width="50.8079" height="1.60076" transform="matrix(-0.00398266 -0.999992 0.999994 -0.00353834 32.9492 56.5642)" fill="black"/>
<rect width="29.9329" height="1.50883" transform="matrix(0.999997 0.00241535 -0.00271865 0.999996 3.61359 34.6787)" fill="black"/>
<rect width="28.0666" height="1.50883" transform="matrix(0.999997 0.00241535 -0.00271865 0.999996 5.25694 38.5401)" fill="black"/>
<rect width="24.4093" height="1.51422" transform="matrix(-0.725937 -0.687761 0.729446 -0.684038 33.0224 56.5977)" fill="black"/>
<rect width="17.0298" height="1.51422" transform="matrix(-0.725937 -0.687761 0.729446 -0.684038 33.3652 51.5867)" fill="black"/>
<rect width="27.2007" height="1.50883" transform="matrix(0.999997 0.00241535 -0.00271865 0.999996 6.07259 30.958)" fill="black"/>
<rect width="30.0037" height="1.50883" transform="matrix(0.999997 0.00241535 -0.00271865 0.999996 42.045 34.7008)" fill="black"/>
<rect width="28.0666" height="1.50883" transform="matrix(0.999997 0.00241535 -0.00271865 0.999996 42.3739 30.8388)" fill="black"/>
<rect width="27.2007" height="1.50883" transform="matrix(0.999997 0.00241535 -0.00271865 0.999996 42.3552 38.4196)" fill="black"/>
</svg>
