<svg width="325" height="110" viewBox="0 0 325 110" fill="none" xmlns="http://www.w3.org/2000/svg">
<path d="M60.2807 54.1429H64.1378V58H60.2807V54.1429ZM60.2807 50.2857H64.1378V54.1429H60.2807V50.2857ZM60.2807 46.4286H64.1378V50.2857H60.2807V46.4286ZM56.4235 50.2857H60.2807V54.1429H56.4235V50.2857ZM56.4235 46.4286H60.2807V50.2857H56.4235V46.4286ZM52.5664 46.4286H56.4235V50.2857H52.5664V46.4286ZM56.4235 42.5714H60.2807V46.4286H56.4235V42.5714ZM64.1378 46.4286H67.995V50.2857H64.1378V46.4286ZM64.1378 50.2857H67.995V54.1429H64.1378V50.2857ZM67.995 46.4286H71.8521V50.2857H67.995V46.4286ZM52.5664 42.5714H56.4235V46.4286H52.5664V42.5714ZM56.4235 38.7143H60.2807V42.5714H56.4235V38.7143ZM52.5664 38.7143H56.4235V42.5714H52.5664V38.7143ZM52.5664 34.8571H56.4235V38.7143H52.5664V34.8571ZM56.4235 34.8571H60.2807V38.7143H56.4235V34.8571ZM56.4235 31H60.2807V34.8571H56.4235V31ZM52.5664 31H56.4235V34.8571H52.5664V31ZM52.5664 27.1429H56.4235V31H52.5664V27.1429ZM56.4235 27.1429H60.2807V31H56.4235V27.1429ZM52.5664 19.4286H56.4235V23.2857H52.5664V19.4286ZM56.4235 19.4286H60.2807V23.2857H56.4235V19.4286ZM56.4235 23.2857H60.2807V27.1429H56.4235V23.2857ZM52.5664 23.2857H56.4235V27.1429H52.5664V23.2857ZM79.5664 54.1429H83.4235V58H79.5664V54.1429ZM79.5664 50.2857H83.4235V54.1429H79.5664V50.2857ZM79.5664 46.4286H83.4235V50.2857H79.5664V46.4286ZM75.7093 50.2857H79.5664V54.1429H75.7093V50.2857ZM75.7093 46.4286H79.5664V50.2857H75.7093V46.4286ZM71.8521 46.4286H75.7093V50.2857H71.8521V46.4286ZM71.8521 42.5714H75.7093V46.4286H71.8521V42.5714ZM83.4235 46.4286H87.2807V50.2857H83.4235V46.4286ZM83.4235 50.2857H87.2807V54.1429H83.4235V50.2857ZM83.4235 42.5714H87.2807V46.4286H83.4235V42.5714ZM87.2807 46.4286H91.1378V50.2857H87.2807V46.4286ZM87.2807 42.5714H91.1378V46.4286H87.2807V42.5714ZM67.995 42.5714H71.8521V46.4286H67.995V42.5714ZM83.4235 19.4286H87.2807V23.2857H83.4235V19.4286ZM87.2807 19.4286H91.1378V23.2857H87.2807V19.4286ZM87.2807 23.2857H91.1378V27.1429H87.2807V23.2857ZM87.2807 27.1429H91.1378V31H87.2807V27.1429ZM87.2807 31H91.1378V34.8571H87.2807V31ZM87.2807 34.8571H91.1378V38.7143H87.2807V34.8571ZM83.4235 34.8571H87.2807V38.7143H83.4235V34.8571ZM83.4235 38.7143H87.2807V42.5714H83.4235V38.7143ZM83.4235 31H87.2807V34.8571H83.4235V31ZM83.4235 27.1429H87.2807V31H83.4235V27.1429ZM83.4235 23.2857H87.2807V27.1429H83.4235V23.2857ZM87.2807 38.7143H91.1378V42.5714H87.2807V38.7143ZM71.8521 38.7143H75.7093V42.5714H71.8521V38.7143ZM67.995 38.7143H71.8521V42.5714H67.995V38.7143ZM67.995 34.8571H71.8521V38.7143H67.995V34.8571ZM71.8521 34.8571H75.7093V38.7143H71.8521V34.8571ZM71.8521 31H75.7093V34.8571H71.8521V31ZM67.995 31H71.8521V34.8571H67.995V31ZM67.995 27.1429H71.8521V31H67.995V27.1429ZM71.8521 27.1429H75.7093V31H71.8521V27.1429ZM67.995 19.4286H71.8521V23.2857H67.995V19.4286ZM71.8521 19.4286H75.7093V23.2857H71.8521V19.4286ZM71.8521 23.2857H75.7093V27.1429H71.8521V23.2857ZM67.995 23.2857H71.8521V27.1429H67.995V23.2857ZM102.679 27.1429H106.536V31H102.679V27.1429ZM98.822 27.1429H102.679V31H98.822V27.1429ZM98.822 31H102.679V34.8571H98.822V31ZM102.679 31H106.536V34.8571H102.679V31ZM106.536 27.1429H110.393V31H106.536V27.1429ZM110.393 27.1429H114.251V31H110.393V27.1429ZM114.251 27.1429H118.108V31H114.251V27.1429ZM114.251 31H118.108V34.8571H114.251V31ZM110.393 31H114.251V34.8571H110.393V31ZM118.108 31H121.965V34.8571H118.108V31ZM118.108 34.8571H121.965V38.7143H118.108V34.8571ZM118.108 50.2857H121.965V54.1429H118.108V50.2857ZM114.251 50.2857H118.108V54.1429H114.251V50.2857ZM114.251 34.8571H118.108V38.7143H114.251V34.8571ZM110.393 50.2857H114.251V54.1429H110.393V50.2857ZM114.251 54.1429H118.108V58H114.251V54.1429ZM110.393 54.1429H114.251V58H110.393V54.1429ZM106.536 54.1429H110.393V58H106.536V54.1429ZM102.679 54.1429H106.536V58H102.679V54.1429ZM98.822 54.1429H102.679V58H98.822V54.1429ZM98.822 50.2857H102.679V54.1429H98.822V50.2857ZM102.679 50.2857H106.536V54.1429H102.679V50.2857ZM98.822 46.4286H102.679V50.2857H98.822V46.4286ZM94.9648 50.2857H98.822V54.1429H94.9648V50.2857ZM94.9648 46.4286H98.822V50.2857H94.9648V46.4286ZM94.9648 42.5714H98.822V46.4286H94.9648V42.5714ZM94.9648 38.7143H98.822V42.5714H94.9648V38.7143ZM94.9648 34.8571H98.822V38.7143H94.9648V34.8571ZM94.9648 31H98.822V34.8571H94.9648V31ZM98.822 34.8571H102.679V38.7143H98.822V34.8571ZM98.822 38.7143H102.679V42.5714H98.822V38.7143ZM98.822 42.5714H102.679V46.4286H98.822V42.5714ZM106.536 50.2857H110.393V54.1429H106.536V50.2857ZM106.536 31H110.393V34.8571H106.536V31ZM114.251 38.7143H118.108V42.5714H114.251V38.7143ZM118.108 38.7143H121.965V42.5714H118.108V38.7143ZM102.679 42.5714H106.536V46.4286H102.679V42.5714ZM106.536 42.5714H110.393V46.4286H106.536V42.5714ZM110.393 42.5714H114.251V46.4286H110.393V42.5714ZM114.251 42.5714H118.108V46.4286H114.251V42.5714ZM118.108 42.5714H121.965V46.4286H118.108V42.5714ZM110.393 38.7143H114.251V42.5714H110.393V38.7143ZM106.536 38.7143H110.393V42.5714H106.536V38.7143ZM102.679 38.7143H106.536V42.5714H102.679V38.7143ZM125.832 19.4286H129.689V23.2857H125.832V19.4286ZM129.689 19.4286H133.546V23.2857H129.689V19.4286ZM129.689 23.2857H133.546V27.1429H129.689V23.2857ZM129.689 27.1429H133.546V31H129.689V27.1429ZM129.689 31H133.546V34.8571H129.689V31ZM129.689 34.8571H133.546V38.7143H129.689V34.8571ZM129.689 38.7143H133.546V42.5714H129.689V38.7143ZM125.832 38.7143H129.689V42.5714H125.832V38.7143ZM125.832 42.5714H129.689V46.4286H125.832V42.5714ZM125.832 46.4286H129.689V50.2857H125.832V46.4286ZM125.832 50.2857H129.689V54.1429H125.832V50.2857ZM125.832 54.1429H129.689V58H125.832V54.1429ZM129.689 54.1429H133.546V58H129.689V54.1429ZM129.689 50.2857H133.546V54.1429H129.689V50.2857ZM129.689 46.4286H133.546V50.2857H129.689V46.4286ZM129.689 42.5714H133.546V46.4286H129.689V42.5714ZM125.832 34.8571H129.689V38.7143H125.832V34.8571ZM125.832 31H129.689V34.8571H125.832V31ZM125.832 27.1429H129.689V31H125.832V27.1429ZM125.832 23.2857H129.689V27.1429H125.832V23.2857ZM145.148 27.1429H149.005V31H145.148V27.1429ZM141.291 27.1429H145.148V31H141.291V27.1429ZM141.291 31H145.148V34.8571H141.291V31ZM145.148 31H149.005V34.8571H145.148V31ZM149.005 27.1429H152.862V31H149.005V27.1429ZM152.862 27.1429H156.719V31H152.862V27.1429ZM156.719 27.1429H160.576V31H156.719V27.1429ZM156.719 31H160.576V34.8571H156.719V31ZM152.862 31H156.719V34.8571H152.862V31ZM160.576 31H164.434V34.8571H160.576V31ZM160.576 34.8571H164.434V38.7143H160.576V34.8571ZM160.576 46.4286H164.434V50.2857H160.576V46.4286ZM160.576 50.2857H164.434V54.1429H160.576V50.2857ZM156.719 50.2857H160.576V54.1429H156.719V50.2857ZM156.719 46.4286H160.576V50.2857H156.719V46.4286ZM156.719 34.8571H160.576V38.7143H156.719V34.8571ZM152.862 50.2857H156.719V54.1429H152.862V50.2857ZM156.719 54.1429H160.576V58H156.719V54.1429ZM152.862 54.1429H156.719V58H152.862V54.1429ZM149.005 54.1429H152.862V58H149.005V54.1429ZM145.148 54.1429H149.005V58H145.148V54.1429ZM141.291 54.1429H145.148V58H141.291V54.1429ZM141.291 50.2857H145.148V54.1429H141.291V50.2857ZM145.148 50.2857H149.005V54.1429H145.148V50.2857ZM141.291 46.4286H145.148V50.2857H141.291V46.4286ZM137.434 50.2857H141.291V54.1429H137.434V50.2857ZM137.434 46.4286H141.291V50.2857H137.434V46.4286ZM137.434 42.5714H141.291V46.4286H137.434V42.5714ZM137.434 38.7143H141.291V42.5714H137.434V38.7143ZM137.434 34.8571H141.291V38.7143H137.434V34.8571ZM137.434 31H141.291V34.8571H137.434V31ZM141.291 34.8571H145.148V38.7143H141.291V34.8571ZM141.291 38.7143H145.148V42.5714H141.291V38.7143ZM141.291 42.5714H145.148V46.4286H141.291V42.5714ZM149.005 50.2857H152.862V54.1429H149.005V50.2857ZM149.005 31H152.862V34.8571H149.005V31ZM176.015 27.1429H179.872V31H176.015V27.1429ZM172.158 27.1429H176.015V31H172.158V27.1429ZM172.158 31H176.015V34.8571H172.158V31ZM176.015 31H179.872V34.8571H176.015V31ZM179.872 27.1429H183.729V31H179.872V27.1429ZM183.729 27.1429H187.586V31H183.729V27.1429ZM187.586 27.1429H191.444V31H187.586V27.1429ZM187.586 31H191.444V34.8571H187.586V31ZM183.729 31H187.586V34.8571H183.729V31ZM187.586 38.7143H191.444V42.5714H187.586V38.7143ZM191.444 31H195.301V34.8571H191.444V31ZM191.444 34.8571H195.301V38.7143H191.444V34.8571ZM191.444 38.7143H195.301V42.5714H191.444V38.7143ZM191.444 42.5714H195.301V46.4286H191.444V42.5714ZM191.444 46.4286H195.301V50.2857H191.444V46.4286ZM191.444 50.2857H195.301V54.1429H191.444V50.2857ZM187.586 50.2857H191.444V54.1429H187.586V50.2857ZM187.586 46.4286H191.444V50.2857H187.586V46.4286ZM187.586 42.5714H191.444V46.4286H187.586V42.5714ZM187.586 34.8571H191.444V38.7143H187.586V34.8571ZM183.729 50.2857H187.586V54.1429H183.729V50.2857ZM187.586 54.1429H191.444V58H187.586V54.1429ZM183.729 54.1429H187.586V58H183.729V54.1429ZM179.872 54.1429H183.729V58H179.872V54.1429ZM176.015 54.1429H179.872V58H176.015V54.1429ZM172.158 54.1429H176.015V58H172.158V54.1429ZM172.158 50.2857H176.015V54.1429H172.158V50.2857ZM176.015 50.2857H179.872V54.1429H176.015V50.2857ZM172.158 46.4286H176.015V50.2857H172.158V46.4286ZM168.301 50.2857H172.158V54.1429H168.301V50.2857ZM168.301 46.4286H172.158V50.2857H168.301V46.4286ZM168.301 42.5714H172.158V46.4286H168.301V42.5714ZM168.301 38.7143H172.158V42.5714H168.301V38.7143ZM168.301 34.8571H172.158V38.7143H168.301V34.8571ZM168.301 31H172.158V34.8571H168.301V31ZM172.158 34.8571H176.015V38.7143H172.158V34.8571ZM172.158 38.7143H176.015V42.5714H172.158V38.7143ZM172.158 42.5714H176.015V46.4286H172.158V42.5714ZM179.872 50.2857H183.729V54.1429H179.872V50.2857ZM179.872 31H183.729V34.8571H179.872V31ZM199.168 31H203.025V34.8571H199.168V31ZM199.168 27.1429H203.025V31H199.168V27.1429ZM203.025 27.1429H206.882V31H203.025V27.1429ZM203.025 31H206.882V34.8571H203.025V31ZM203.025 34.8571H206.882V38.7143H203.025V34.8571ZM203.025 38.7143H206.882V42.5714H203.025V38.7143ZM203.025 42.5714H206.882V46.4286H203.025V42.5714ZM199.168 42.5714H203.025V46.4286H199.168V42.5714ZM199.168 38.7143H203.025V42.5714H199.168V38.7143ZM199.168 34.8571H203.025V38.7143H199.168V34.8571ZM199.168 46.4286H203.025V50.2857H199.168V46.4286ZM203.025 46.4286H206.882V50.2857H203.025V46.4286ZM203.025 50.2857H206.882V54.1429H203.025V50.2857ZM203.025 54.1429H206.882V58H203.025V54.1429ZM199.168 54.1429H203.025V58H199.168V54.1429ZM199.168 50.2857H203.025V54.1429H199.168V50.2857ZM214.597 54.1429H218.454V58H214.597V54.1429ZM218.454 54.1429H222.311V58H218.454V54.1429ZM218.454 50.2857H222.311V54.1429H218.454V50.2857ZM218.454 46.4286H222.311V50.2857H218.454V46.4286ZM218.454 42.5714H222.311V46.4286H218.454V42.5714ZM218.454 38.7143H222.311V42.5714H218.454V38.7143ZM218.454 34.8571H222.311V38.7143H218.454V34.8571ZM218.454 31H222.311V34.8571H218.454V31ZM214.597 38.7143H218.454V42.5714H214.597V38.7143ZM214.597 42.5714H218.454V46.4286H214.597V42.5714ZM214.597 46.4286H218.454V50.2857H214.597V46.4286ZM214.597 50.2857H218.454V54.1429H214.597V50.2857ZM214.597 34.8571H218.454V38.7143H214.597V34.8571ZM206.882 31H210.739V34.8571H206.882V31ZM210.739 31H214.597V34.8571H210.739V31ZM214.597 27.1429H218.454V31H214.597V27.1429ZM214.597 31H218.454V34.8571H214.597V31ZM210.739 27.1429H214.597V31H210.739V27.1429ZM230.025 54.1429H233.882V58H230.025V54.1429ZM233.882 54.1429H237.739V58H233.882V54.1429ZM233.882 50.2857H237.739V54.1429H233.882V50.2857ZM233.882 46.4286H237.739V50.2857H233.882V46.4286ZM233.882 42.5714H237.739V46.4286H233.882V42.5714ZM233.882 38.7143H237.739V42.5714H233.882V38.7143ZM233.882 34.8571H237.739V38.7143H233.882V34.8571ZM233.882 31H237.739V34.8571H233.882V31ZM230.025 38.7143H233.882V42.5714H230.025V38.7143ZM230.025 42.5714H233.882V46.4286H230.025V42.5714ZM230.025 46.4286H233.882V50.2857H230.025V46.4286ZM230.025 50.2857H233.882V54.1429H230.025V50.2857ZM230.025 34.8571H233.882V38.7143H230.025V34.8571ZM222.311 31H226.168V34.8571H222.311V31ZM226.168 31H230.025V34.8571H226.168V31ZM230.025 27.1429H233.882V31H230.025V27.1429ZM230.025 31H233.882V34.8571H230.025V31ZM226.168 27.1429H230.025V31H226.168V27.1429ZM249.281 27.1429H253.138V31H249.281V27.1429ZM245.424 27.1429H249.281V31H245.424V27.1429ZM245.424 31H249.281V34.8571H245.424V31ZM249.281 31H253.138V34.8571H249.281V31ZM253.138 27.1429H256.995V31H253.138V27.1429ZM256.995 27.1429H260.852V31H256.995V27.1429ZM260.852 27.1429H264.709V31H260.852V27.1429ZM260.852 31H264.709V34.8571H260.852V31ZM256.995 31H260.852V34.8571H256.995V31ZM264.709 31H268.566V34.8571H264.709V31ZM264.709 34.8571H268.566V38.7143H264.709V34.8571ZM264.709 50.2857H268.566V54.1429H264.709V50.2857ZM260.852 50.2857H264.709V54.1429H260.852V50.2857ZM260.852 34.8571H264.709V38.7143H260.852V34.8571ZM256.995 50.2857H260.852V54.1429H256.995V50.2857ZM260.852 54.1429H264.709V58H260.852V54.1429ZM256.995 54.1429H260.852V58H256.995V54.1429ZM253.138 54.1429H256.995V58H253.138V54.1429ZM249.281 54.1429H253.138V58H249.281V54.1429ZM245.424 54.1429H249.281V58H245.424V54.1429ZM245.424 50.2857H249.281V54.1429H245.424V50.2857ZM249.281 50.2857H253.138V54.1429H249.281V50.2857ZM245.424 46.4286H249.281V50.2857H245.424V46.4286ZM241.566 50.2857H245.424V54.1429H241.566V50.2857ZM241.566 46.4286H245.424V50.2857H241.566V46.4286ZM241.566 42.5714H245.424V46.4286H241.566V42.5714ZM241.566 38.7143H245.424V42.5714H241.566V38.7143ZM241.566 34.8571H245.424V38.7143H241.566V34.8571ZM241.566 31H245.424V34.8571H241.566V31ZM245.424 34.8571H249.281V38.7143H245.424V34.8571ZM245.424 38.7143H249.281V42.5714H245.424V38.7143ZM245.424 42.5714H249.281V46.4286H245.424V42.5714ZM253.138 50.2857H256.995V54.1429H253.138V50.2857ZM253.138 31H256.995V34.8571H253.138V31ZM260.852 38.7143H264.709V42.5714H260.852V38.7143ZM264.709 38.7143H268.566V42.5714H264.709V38.7143ZM249.281 42.5714H253.138V46.4286H249.281V42.5714ZM253.138 42.5714H256.995V46.4286H253.138V42.5714ZM256.995 42.5714H260.852V46.4286H256.995V42.5714ZM260.852 42.5714H264.709V46.4286H260.852V42.5714ZM264.709 42.5714H268.566V46.4286H264.709V42.5714ZM256.995 38.7143H260.852V42.5714H256.995V38.7143ZM253.138 38.7143H256.995V42.5714H253.138V38.7143ZM249.281 38.7143H253.138V42.5714H249.281V38.7143Z" fill="white"/>
<path d="M11.7441 80.9262H13.9941V83.1762H11.7441V80.9262ZM11.7441 83.1762H13.9941V85.4262H11.7441V83.1762ZM9.49414 83.1762H11.7441V85.4262H9.49414V83.1762ZM9.49414 80.9262H11.7441V83.1762H9.49414V80.9262ZM7.24414 80.9262H9.49414V83.1762H7.24414V80.9262ZM7.24414 83.1762H9.49414V85.4262H7.24414V83.1762ZM7.24414 85.4262H9.49414V87.6762H7.24414V85.4262ZM4.99414 83.1762H7.24414V85.4262H4.99414V83.1762ZM4.99414 85.4262H7.24414V87.6762H4.99414V85.4262ZM4.99414 87.6762H7.24414V89.9262H4.99414V87.6762ZM4.99414 89.9262H7.24414V92.1762H4.99414V89.9262ZM7.24414 89.9262H9.49414V92.1762H7.24414V89.9262ZM7.24414 87.6762H9.49414V89.9262H7.24414V87.6762ZM4.99414 101.176H7.24414V103.426H4.99414V101.176ZM4.99414 98.9262H7.24414V101.176H4.99414V98.9262ZM4.99414 96.6762H7.24414V98.9262H4.99414V96.6762ZM4.99414 94.4262H7.24414V96.6762H4.99414V94.4262ZM4.99414 92.1762H7.24414V94.4262H4.99414V92.1762ZM7.24414 92.1762H9.49414V94.4262H7.24414V92.1762ZM7.24414 94.4262H9.49414V96.6762H7.24414V94.4262ZM7.24414 96.6762H9.49414V98.9262H7.24414V96.6762ZM7.24414 98.9262H9.49414V101.176H7.24414V98.9262ZM7.24414 101.176H9.49414V103.426H7.24414V101.176ZM2.74414 87.6762H4.99414V89.9262H2.74414V87.6762ZM9.49414 87.6762H11.7441V89.9262H9.49414V87.6762ZM11.7441 87.6762H13.9941V89.9262H11.7441V87.6762ZM2.74414 89.9262H4.99414V92.1762H2.74414V89.9262ZM9.49414 89.9262H11.7441V92.1762H9.49414V89.9262ZM11.7441 89.9262H13.9941V92.1762H11.7441V89.9262ZM20.7383 85.4262H22.9883V87.6762H20.7383V85.4262ZM18.4883 85.4262H20.7383V87.6762H18.4883V85.4262ZM18.4883 87.6762H20.7383V89.9262H18.4883V87.6762ZM20.7383 87.6762H22.9883V89.9262H20.7383V87.6762ZM22.9883 85.4262H25.2383V87.6762H22.9883V85.4262ZM25.2383 85.4262H27.4883V87.6762H25.2383V85.4262ZM27.4883 85.4262H29.7383V87.6762H27.4883V85.4262ZM27.4883 87.6762H29.7383V89.9262H27.4883V87.6762ZM25.2383 87.6762H27.4883V89.9262H25.2383V87.6762ZM29.7383 87.6762H31.9883V89.9262H29.7383V87.6762ZM29.7383 89.9262H31.9883V92.1762H29.7383V89.9262ZM29.7383 98.9262H31.9883V101.176H29.7383V98.9262ZM27.4883 98.9262H29.7383V101.176H27.4883V98.9262ZM27.4883 89.9262H29.7383V92.1762H27.4883V89.9262ZM25.2383 98.9262H27.4883V101.176H25.2383V98.9262ZM27.4883 101.176H29.7383V103.426H27.4883V101.176ZM25.2383 101.176H27.4883V103.426H25.2383V101.176ZM22.9883 101.176H25.2383V103.426H22.9883V101.176ZM20.7383 101.176H22.9883V103.426H20.7383V101.176ZM18.4883 101.176H20.7383V103.426H18.4883V101.176ZM18.4883 98.9262H20.7383V101.176H18.4883V98.9262ZM20.7383 98.9262H22.9883V101.176H20.7383V98.9262ZM18.4883 96.6762H20.7383V98.9262H18.4883V96.6762ZM16.2383 98.9262H18.4883V101.176H16.2383V98.9262ZM16.2383 96.6762H18.4883V98.9262H16.2383V96.6762ZM16.2383 94.4262H18.4883V96.6762H16.2383V94.4262ZM16.2383 92.1762H18.4883V94.4262H16.2383V92.1762ZM16.2383 89.9262H18.4883V92.1762H16.2383V89.9262ZM16.2383 87.6762H18.4883V89.9262H16.2383V87.6762ZM18.4883 89.9262H20.7383V92.1762H18.4883V89.9262ZM18.4883 92.1762H20.7383V94.4262H18.4883V92.1762ZM18.4883 94.4262H20.7383V96.6762H18.4883V94.4262ZM22.9883 98.9262H25.2383V101.176H22.9883V98.9262ZM22.9883 87.6762H25.2383V89.9262H22.9883V87.6762ZM27.4883 92.1762H29.7383V94.4262H27.4883V92.1762ZM29.7383 92.1762H31.9883V94.4262H29.7383V92.1762ZM20.7383 94.4262H22.9883V96.6762H20.7383V94.4262ZM22.9883 94.4262H25.2383V96.6762H22.9883V94.4262ZM25.2383 94.4262H27.4883V96.6762H25.2383V94.4262ZM27.4883 94.4262H29.7383V96.6762H27.4883V94.4262ZM29.7383 94.4262H31.9883V96.6762H29.7383V94.4262ZM25.2383 92.1762H27.4883V94.4262H25.2383V92.1762ZM22.9883 92.1762H25.2383V94.4262H22.9883V92.1762ZM20.7383 92.1762H22.9883V94.4262H20.7383V92.1762ZM38.7441 85.4262H40.9941V87.6762H38.7441V85.4262ZM36.4941 85.4262H38.7441V87.6762H36.4941V85.4262ZM36.4941 87.6762H38.7441V89.9262H36.4941V87.6762ZM38.7441 87.6762H40.9941V89.9262H38.7441V87.6762ZM40.9941 85.4262H43.2441V87.6762H40.9941V85.4262ZM43.2441 85.4262H45.4941V87.6762H43.2441V85.4262ZM45.4941 85.4262H47.7441V87.6762H45.4941V85.4262ZM45.4941 87.6762H47.7441V89.9262H45.4941V87.6762ZM43.2441 87.6762H45.4941V89.9262H43.2441V87.6762ZM47.7441 87.6762H49.9941V89.9262H47.7441V87.6762ZM47.7441 89.9262H49.9941V92.1762H47.7441V89.9262ZM47.7441 98.9262H49.9941V101.176H47.7441V98.9262ZM45.4941 98.9262H47.7441V101.176H45.4941V98.9262ZM45.4941 89.9262H47.7441V92.1762H45.4941V89.9262ZM43.2441 98.9262H45.4941V101.176H43.2441V98.9262ZM45.4941 101.176H47.7441V103.426H45.4941V101.176ZM43.2441 101.176H45.4941V103.426H43.2441V101.176ZM40.9941 101.176H43.2441V103.426H40.9941V101.176ZM38.7441 101.176H40.9941V103.426H38.7441V101.176ZM36.4941 101.176H38.7441V103.426H36.4941V101.176ZM36.4941 98.9262H38.7441V101.176H36.4941V98.9262ZM38.7441 98.9262H40.9941V101.176H38.7441V98.9262ZM36.4941 96.6762H38.7441V98.9262H36.4941V96.6762ZM34.2441 98.9262H36.4941V101.176H34.2441V98.9262ZM34.2441 96.6762H36.4941V98.9262H34.2441V96.6762ZM34.2441 94.4262H36.4941V96.6762H34.2441V94.4262ZM34.2441 92.1762H36.4941V94.4262H34.2441V92.1762ZM34.2441 89.9262H36.4941V92.1762H34.2441V89.9262ZM34.2441 87.6762H36.4941V89.9262H34.2441V87.6762ZM36.4941 89.9262H38.7441V92.1762H36.4941V89.9262ZM36.4941 92.1762H38.7441V94.4262H36.4941V92.1762ZM36.4941 94.4262H38.7441V96.6762H36.4941V94.4262ZM40.9941 98.9262H43.2441V101.176H40.9941V98.9262ZM40.9941 87.6762H43.2441V89.9262H40.9941V87.6762ZM45.4941 92.1762H47.7441V94.4262H45.4941V92.1762ZM47.7441 92.1762H49.9941V94.4262H47.7441V92.1762ZM38.7441 94.4262H40.9941V96.6762H38.7441V94.4262ZM40.9941 94.4262H43.2441V96.6762H40.9941V94.4262ZM43.2441 94.4262H45.4941V96.6762H43.2441V94.4262ZM45.4941 94.4262H47.7441V96.6762H45.4941V94.4262ZM47.7441 94.4262H49.9941V96.6762H47.7441V94.4262ZM43.2441 92.1762H45.4941V94.4262H43.2441V92.1762ZM40.9941 92.1762H43.2441V94.4262H40.9941V92.1762ZM38.7441 92.1762H40.9941V94.4262H38.7441V92.1762ZM52.25 80.9262H54.5V83.1762H52.25V80.9262ZM54.5 80.9262H56.75V83.1762H54.5V80.9262ZM54.5 83.1762H56.75V85.4262H54.5V83.1762ZM54.5 85.4262H56.75V87.6762H54.5V85.4262ZM54.5 87.6762H56.75V89.9262H54.5V87.6762ZM54.5 89.9262H56.75V92.1762H54.5V89.9262ZM54.5 92.1762H56.75V94.4262H54.5V92.1762ZM52.25 92.1762H54.5V94.4262H52.25V92.1762ZM52.25 94.4262H54.5V96.6762H52.25V94.4262ZM52.25 96.6762H54.5V98.9262H52.25V96.6762ZM52.25 98.9262H54.5V101.176H52.25V98.9262ZM52.25 101.176H54.5V103.426H52.25V101.176ZM54.5 101.176H56.75V103.426H54.5V101.176ZM54.5 98.9262H56.75V101.176H54.5V98.9262ZM54.5 96.6762H56.75V98.9262H54.5V96.6762ZM54.5 94.4262H56.75V96.6762H54.5V94.4262ZM52.25 89.9262H54.5V92.1762H52.25V89.9262ZM52.25 87.6762H54.5V89.9262H52.25V87.6762ZM52.25 85.4262H54.5V87.6762H52.25V85.4262ZM52.25 83.1762H54.5V85.4262H52.25V83.1762ZM77 80.9262H79.25V83.1762H77V80.9262ZM77 83.1762H79.25V85.4262H77V83.1762ZM74.75 83.1762H77V85.4262H74.75V83.1762ZM74.75 80.9262H77V83.1762H74.75V80.9262ZM72.5 80.9262H74.75V83.1762H72.5V80.9262ZM72.5 83.1762H74.75V85.4262H72.5V83.1762ZM72.5 85.4262H74.75V87.6762H72.5V85.4262ZM70.25 83.1762H72.5V85.4262H70.25V83.1762ZM70.25 85.4262H72.5V87.6762H70.25V85.4262ZM70.25 87.6762H72.5V89.9262H70.25V87.6762ZM70.25 89.9262H72.5V92.1762H70.25V89.9262ZM72.5 89.9262H74.75V92.1762H72.5V89.9262ZM72.5 87.6762H74.75V89.9262H72.5V87.6762ZM70.25 101.176H72.5V103.426H70.25V101.176ZM70.25 98.9262H72.5V101.176H70.25V98.9262ZM70.25 96.6762H72.5V98.9262H70.25V96.6762ZM70.25 94.4262H72.5V96.6762H70.25V94.4262ZM70.25 92.1762H72.5V94.4262H70.25V92.1762ZM72.5 92.1762H74.75V94.4262H72.5V92.1762ZM72.5 94.4262H74.75V96.6762H72.5V94.4262ZM72.5 96.6762H74.75V98.9262H72.5V96.6762ZM72.5 98.9262H74.75V101.176H72.5V98.9262ZM72.5 101.176H74.75V103.426H72.5V101.176ZM68 87.6762H70.25V89.9262H68V87.6762ZM74.75 87.6762H77V89.9262H74.75V87.6762ZM77 87.6762H79.25V89.9262H77V87.6762ZM68 89.9262H70.25V92.1762H68V89.9262ZM74.75 89.9262H77V92.1762H74.75V89.9262ZM77 89.9262H79.25V92.1762H77V89.9262ZM81.4941 87.6762H83.7441V89.9262H81.4941V87.6762ZM81.4941 85.4262H83.7441V87.6762H81.4941V85.4262ZM83.7441 85.4262H85.9941V87.6762H83.7441V85.4262ZM83.7441 87.6762H85.9941V89.9262H83.7441V87.6762ZM83.7441 89.9262H85.9941V92.1762H83.7441V89.9262ZM83.7441 92.1762H85.9941V94.4262H83.7441V92.1762ZM83.7441 94.4262H85.9941V96.6762H83.7441V94.4262ZM81.4941 94.4262H83.7441V96.6762H81.4941V94.4262ZM81.4941 92.1762H83.7441V94.4262H81.4941V92.1762ZM81.4941 89.9262H83.7441V92.1762H81.4941V89.9262ZM81.4941 96.6762H83.7441V98.9262H81.4941V96.6762ZM83.7441 96.6762H85.9941V98.9262H83.7441V96.6762ZM83.7441 98.9262H85.9941V101.176H83.7441V98.9262ZM83.7441 101.176H85.9941V103.426H83.7441V101.176ZM81.4941 101.176H83.7441V103.426H81.4941V101.176ZM81.4941 98.9262H83.7441V101.176H81.4941V98.9262ZM85.9941 87.6762H88.2441V89.9262H85.9941V87.6762ZM88.2441 87.6762H90.4941V89.9262H88.2441V87.6762ZM90.4941 87.6762H92.7441V89.9262H90.4941V87.6762ZM90.4941 85.4262H92.7441V87.6762H90.4941V85.4262ZM88.2441 85.4262H90.4941V87.6762H88.2441V85.4262ZM85.9941 89.9262H88.2441V92.1762H85.9941V89.9262ZM92.7441 87.6762H94.9941V89.9262H92.7441V87.6762ZM90.4941 89.9262H92.7441V92.1762H90.4941V89.9262ZM101.744 85.4262H103.994V87.6762H101.744V85.4262ZM99.4941 85.4262H101.744V87.6762H99.4941V85.4262ZM99.4941 87.6762H101.744V89.9262H99.4941V87.6762ZM101.744 87.6762H103.994V89.9262H101.744V87.6762ZM103.994 85.4262H106.244V87.6762H103.994V85.4262ZM106.244 85.4262H108.494V87.6762H106.244V85.4262ZM108.494 85.4262H110.744V87.6762H108.494V85.4262ZM108.494 87.6762H110.744V89.9262H108.494V87.6762ZM106.244 87.6762H108.494V89.9262H106.244V87.6762ZM110.744 87.6762H112.994V89.9262H110.744V87.6762ZM110.744 89.9262H112.994V92.1762H110.744V89.9262ZM110.744 98.9262H112.994V101.176H110.744V98.9262ZM108.494 98.9262H110.744V101.176H108.494V98.9262ZM108.494 89.9262H110.744V92.1762H108.494V89.9262ZM106.244 98.9262H108.494V101.176H106.244V98.9262ZM108.494 101.176H110.744V103.426H108.494V101.176ZM106.244 101.176H108.494V103.426H106.244V101.176ZM103.994 101.176H106.244V103.426H103.994V101.176ZM101.744 101.176H103.994V103.426H101.744V101.176ZM99.4941 101.176H101.744V103.426H99.4941V101.176ZM99.4941 98.9262H101.744V101.176H99.4941V98.9262ZM101.744 98.9262H103.994V101.176H101.744V98.9262ZM99.4941 96.6762H101.744V98.9262H99.4941V96.6762ZM97.2441 98.9262H99.4941V101.176H97.2441V98.9262ZM97.2441 96.6762H99.4941V98.9262H97.2441V96.6762ZM97.2441 94.4262H99.4941V96.6762H97.2441V94.4262ZM97.2441 92.1762H99.4941V94.4262H97.2441V92.1762ZM97.2441 89.9262H99.4941V92.1762H97.2441V89.9262ZM97.2441 87.6762H99.4941V89.9262H97.2441V87.6762ZM99.4941 89.9262H101.744V92.1762H99.4941V89.9262ZM99.4941 92.1762H101.744V94.4262H99.4941V92.1762ZM99.4941 94.4262H101.744V96.6762H99.4941V94.4262ZM103.994 98.9262H106.244V101.176H103.994V98.9262ZM103.994 87.6762H106.244V89.9262H103.994V87.6762ZM108.494 92.1762H110.744V94.4262H108.494V92.1762ZM110.744 92.1762H112.994V94.4262H110.744V92.1762ZM101.744 94.4262H103.994V96.6762H101.744V94.4262ZM103.994 94.4262H106.244V96.6762H103.994V94.4262ZM106.244 94.4262H108.494V96.6762H106.244V94.4262ZM108.494 94.4262H110.744V96.6762H108.494V94.4262ZM110.744 94.4262H112.994V96.6762H110.744V94.4262ZM106.244 92.1762H108.494V94.4262H106.244V92.1762ZM103.994 92.1762H106.244V94.4262H103.994V92.1762ZM101.744 92.1762H103.994V94.4262H101.744V92.1762ZM119.75 85.4262H122V87.6762H119.75V85.4262ZM117.5 85.4262H119.75V87.6762H117.5V85.4262ZM117.5 87.6762H119.75V89.9262H117.5V87.6762ZM119.75 87.6762H122V89.9262H119.75V87.6762ZM122 85.4262H124.25V87.6762H122V85.4262ZM124.25 85.4262H126.5V87.6762H124.25V85.4262ZM126.5 85.4262H128.75V87.6762H126.5V85.4262ZM126.5 87.6762H128.75V89.9262H126.5V87.6762ZM124.25 87.6762H126.5V89.9262H124.25V87.6762ZM128.75 87.6762H131V89.9262H128.75V87.6762ZM128.75 89.9262H131V92.1762H128.75V89.9262ZM128.75 98.9262H131V101.176H128.75V98.9262ZM126.5 98.9262H128.75V101.176H126.5V98.9262ZM126.5 89.9262H128.75V92.1762H126.5V89.9262ZM124.25 98.9262H126.5V101.176H124.25V98.9262ZM126.5 101.176H128.75V103.426H126.5V101.176ZM124.25 101.176H126.5V103.426H124.25V101.176ZM122 101.176H124.25V103.426H122V101.176ZM119.75 101.176H122V103.426H119.75V101.176ZM117.5 101.176H119.75V103.426H117.5V101.176ZM117.5 98.9262H119.75V101.176H117.5V98.9262ZM119.75 98.9262H122V101.176H119.75V98.9262ZM117.5 96.6762H119.75V98.9262H117.5V96.6762ZM115.25 98.9262H117.5V101.176H115.25V98.9262ZM115.25 96.6762H117.5V98.9262H115.25V96.6762ZM115.25 94.4262H117.5V96.6762H115.25V94.4262ZM115.25 92.1762H117.5V94.4262H115.25V92.1762ZM115.25 89.9262H117.5V92.1762H115.25V89.9262ZM115.25 87.6762H117.5V89.9262H115.25V87.6762ZM117.5 89.9262H119.75V92.1762H117.5V89.9262ZM117.5 92.1762H119.75V94.4262H117.5V92.1762ZM117.5 94.4262H119.75V96.6762H117.5V94.4262ZM122 98.9262H124.25V101.176H122V98.9262ZM122 87.6762H124.25V89.9262H122V87.6762ZM126.5 92.1762H128.75V94.4262H126.5V92.1762ZM128.75 92.1762H131V94.4262H128.75V92.1762ZM119.75 94.4262H122V96.6762H119.75V94.4262ZM122 94.4262H124.25V96.6762H122V94.4262ZM124.25 94.4262H126.5V96.6762H124.25V94.4262ZM126.5 94.4262H128.75V96.6762H126.5V94.4262ZM128.75 94.4262H131V96.6762H128.75V94.4262ZM124.25 92.1762H126.5V94.4262H124.25V92.1762ZM122 92.1762H124.25V94.4262H122V92.1762ZM119.75 92.1762H122V94.4262H119.75V92.1762ZM151.238 98.9262H153.488V101.176H151.238V98.9262ZM151.238 101.176H153.488V103.426H151.238V101.176ZM148.988 101.176H151.238V103.426H148.988V101.176ZM148.988 98.9262H151.238V101.176H148.988V98.9262ZM146.738 101.176H148.988V103.426H146.738V101.176ZM146.738 98.9262H148.988V101.176H146.738V98.9262ZM144.488 98.9262H146.738V101.176H144.488V98.9262ZM144.488 96.6762H146.738V98.9262H144.488V96.6762ZM144.488 94.4262H146.738V96.6762H144.488V94.4262ZM144.488 92.1762H146.738V94.4262H144.488V92.1762ZM144.488 89.9262H146.738V92.1762H144.488V89.9262ZM144.488 87.6762H146.738V89.9262H144.488V87.6762ZM146.738 94.4262H148.988V96.6762H146.738V94.4262ZM146.738 96.6762H148.988V98.9262H146.738V96.6762ZM146.738 92.1762H148.988V94.4262H146.738V92.1762ZM146.738 89.9262H148.988V92.1762H146.738V89.9262ZM146.738 80.9262H148.988V83.1762H146.738V80.9262ZM146.738 83.1762H148.988V85.4262H146.738V83.1762ZM146.738 85.4262H148.988V87.6762H146.738V85.4262ZM146.738 87.6762H148.988V89.9262H146.738V87.6762ZM144.488 85.4262H146.738V87.6762H144.488V85.4262ZM142.238 87.6762H144.488V89.9262H142.238V87.6762ZM148.988 87.6762H151.238V89.9262H148.988V87.6762ZM151.238 87.6762H153.488V89.9262H151.238V87.6762ZM144.488 83.1762H146.738V85.4262H144.488V83.1762ZM142.238 89.9262H144.488V92.1762H142.238V89.9262ZM148.988 89.9262H151.238V92.1762H148.988V89.9262ZM151.238 89.9262H153.488V92.1762H151.238V89.9262ZM160.232 85.4262H162.482V87.6762H160.232V85.4262ZM157.982 85.4262H160.232V87.6762H157.982V85.4262ZM157.982 87.6762H160.232V89.9262H157.982V87.6762ZM160.232 87.6762H162.482V89.9262H160.232V87.6762ZM162.482 85.4262H164.732V87.6762H162.482V85.4262ZM164.732 85.4262H166.982V87.6762H164.732V85.4262ZM166.982 85.4262H169.232V87.6762H166.982V85.4262ZM166.982 87.6762H169.232V89.9262H166.982V87.6762ZM164.732 87.6762H166.982V89.9262H164.732V87.6762ZM166.982 92.1762H169.232V94.4262H166.982V92.1762ZM169.232 87.6762H171.482V89.9262H169.232V87.6762ZM169.232 89.9262H171.482V92.1762H169.232V89.9262ZM169.232 92.1762H171.482V94.4262H169.232V92.1762ZM169.232 94.4262H171.482V96.6762H169.232V94.4262ZM169.232 96.6762H171.482V98.9262H169.232V96.6762ZM169.232 98.9262H171.482V101.176H169.232V98.9262ZM166.982 98.9262H169.232V101.176H166.982V98.9262ZM166.982 96.6762H169.232V98.9262H166.982V96.6762ZM166.982 94.4262H169.232V96.6762H166.982V94.4262ZM166.982 89.9262H169.232V92.1762H166.982V89.9262ZM164.732 98.9262H166.982V101.176H164.732V98.9262ZM166.982 101.176H169.232V103.426H166.982V101.176ZM164.732 101.176H166.982V103.426H164.732V101.176ZM162.482 101.176H164.732V103.426H162.482V101.176ZM160.232 101.176H162.482V103.426H160.232V101.176ZM157.982 101.176H160.232V103.426H157.982V101.176ZM157.982 98.9262H160.232V101.176H157.982V98.9262ZM160.232 98.9262H162.482V101.176H160.232V98.9262ZM157.982 96.6762H160.232V98.9262H157.982V96.6762ZM155.732 98.9262H157.982V101.176H155.732V98.9262ZM155.732 96.6762H157.982V98.9262H155.732V96.6762ZM155.732 94.4262H157.982V96.6762H155.732V94.4262ZM155.732 92.1762H157.982V94.4262H155.732V92.1762ZM155.732 89.9262H157.982V92.1762H155.732V89.9262ZM155.732 87.6762H157.982V89.9262H155.732V87.6762ZM157.982 89.9262H160.232V92.1762H157.982V89.9262ZM157.982 92.1762H160.232V94.4262H157.982V92.1762ZM157.982 94.4262H160.232V96.6762H157.982V94.4262ZM162.482 98.9262H164.732V101.176H162.482V98.9262ZM162.482 87.6762H164.732V89.9262H162.482V87.6762ZM187.221 85.4262H189.471V87.6762H187.221V85.4262ZM184.971 85.4262H187.221V87.6762H184.971V85.4262ZM184.971 87.6762H187.221V89.9262H184.971V87.6762ZM187.221 87.6762H189.471V89.9262H187.221V87.6762ZM189.471 85.4262H191.721V87.6762H189.471V85.4262ZM191.721 85.4262H193.971V87.6762H191.721V85.4262ZM193.971 85.4262H196.221V87.6762H193.971V85.4262ZM193.971 87.6762H196.221V89.9262H193.971V87.6762ZM191.721 87.6762H193.971V89.9262H191.721V87.6762ZM196.221 87.6762H198.471V89.9262H196.221V87.6762ZM196.221 89.9262H198.471V92.1762H196.221V89.9262ZM196.221 98.9262H198.471V101.176H196.221V98.9262ZM193.971 98.9262H196.221V101.176H193.971V98.9262ZM193.971 89.9262H196.221V92.1762H193.971V89.9262ZM191.721 98.9262H193.971V101.176H191.721V98.9262ZM193.971 101.176H196.221V103.426H193.971V101.176ZM191.721 101.176H193.971V103.426H191.721V101.176ZM189.471 101.176H191.721V103.426H189.471V101.176ZM187.221 101.176H189.471V103.426H187.221V101.176ZM184.971 101.176H187.221V103.426H184.971V101.176ZM184.971 98.9262H187.221V101.176H184.971V98.9262ZM187.221 98.9262H189.471V101.176H187.221V98.9262ZM184.971 96.6762H187.221V98.9262H184.971V96.6762ZM182.721 98.9262H184.971V101.176H182.721V98.9262ZM182.721 96.6762H184.971V98.9262H182.721V96.6762ZM182.721 94.4262H184.971V96.6762H182.721V94.4262ZM182.721 92.1762H184.971V94.4262H182.721V92.1762ZM182.721 89.9262H184.971V92.1762H182.721V89.9262ZM182.721 87.6762H184.971V89.9262H182.721V87.6762ZM184.971 89.9262H187.221V92.1762H184.971V89.9262ZM184.971 92.1762H187.221V94.4262H184.971V92.1762ZM184.971 94.4262H187.221V96.6762H184.971V94.4262ZM189.471 98.9262H191.721V101.176H189.471V98.9262ZM189.471 87.6762H191.721V89.9262H189.471V87.6762ZM193.971 92.1762H196.221V94.4262H193.971V92.1762ZM196.221 92.1762H198.471V94.4262H196.221V92.1762ZM187.221 94.4262H189.471V96.6762H187.221V94.4262ZM189.471 94.4262H191.721V96.6762H189.471V94.4262ZM191.721 94.4262H193.971V96.6762H191.721V94.4262ZM193.971 94.4262H196.221V96.6762H193.971V94.4262ZM196.221 94.4262H198.471V96.6762H196.221V94.4262ZM191.721 92.1762H193.971V94.4262H191.721V92.1762ZM189.471 92.1762H191.721V94.4262H189.471V92.1762ZM187.221 92.1762H189.471V94.4262H187.221V92.1762ZM200.727 98.9262H202.977V101.176H200.727V98.9262ZM200.727 96.6762H202.977V98.9262H200.727V96.6762ZM202.977 96.6762H205.227V98.9262H202.977V96.6762ZM202.977 98.9262H205.227V101.176H202.977V98.9262ZM202.977 94.4262H205.227V96.6762H202.977V94.4262ZM205.227 94.4262H207.477V96.6762H205.227V94.4262ZM209.727 94.4262H211.977V96.6762H209.727V94.4262ZM211.977 94.4262H214.227V96.6762H211.977V94.4262ZM211.977 98.9262H214.227V101.176H211.977V98.9262ZM214.227 98.9262H216.477V101.176H214.227V98.9262ZM214.227 96.6762H216.477V98.9262H214.227V96.6762ZM205.227 92.1762H207.477V94.4262H205.227V92.1762ZM207.477 92.1762H209.727V94.4262H207.477V92.1762ZM209.727 92.1762H211.977V94.4262H209.727V92.1762ZM209.727 89.9262H211.977V92.1762H209.727V89.9262ZM211.977 89.9262H214.227V92.1762H211.977V89.9262ZM211.977 87.6762H214.227V89.9262H211.977V87.6762ZM211.977 85.4262H214.227V87.6762H211.977V85.4262ZM214.227 85.4262H216.477V87.6762H214.227V85.4262ZM214.227 87.6762H216.477V89.9262H214.227V87.6762ZM205.227 89.9262H207.477V92.1762H205.227V89.9262ZM202.977 89.9262H205.227V92.1762H202.977V89.9262ZM202.977 87.6762H205.227V89.9262H202.977V87.6762ZM202.977 85.4262H205.227V87.6762H202.977V85.4262ZM200.727 85.4262H202.977V87.6762H200.727V85.4262ZM200.727 87.6762H202.977V89.9262H200.727V87.6762ZM205.227 96.6762H207.477V98.9262H205.227V96.6762ZM209.727 96.6762H211.977V98.9262H209.727V96.6762ZM211.977 96.6762H214.227V98.9262H211.977V96.6762ZM205.227 87.6762H207.477V89.9262H205.227V87.6762ZM209.727 87.6762H211.977V89.9262H209.727V87.6762ZM207.477 89.9262H209.727V92.1762H207.477V89.9262ZM207.477 94.4262H209.727V96.6762H207.477V94.4262ZM200.727 101.176H202.977V103.426H200.727V101.176ZM202.977 101.176H205.227V103.426H202.977V101.176ZM211.977 101.176H214.227V103.426H211.977V101.176ZM214.227 101.176H216.477V103.426H214.227V101.176ZM218.732 87.6762H220.982V89.9262H218.732V87.6762ZM218.732 85.4262H220.982V87.6762H218.732V85.4262ZM220.982 85.4262H223.232V87.6762H220.982V85.4262ZM220.982 87.6762H223.232V89.9262H220.982V87.6762ZM220.982 89.9262H223.232V92.1762H220.982V89.9262ZM220.982 92.1762H223.232V94.4262H220.982V92.1762ZM220.982 94.4262H223.232V96.6762H220.982V94.4262ZM218.732 94.4262H220.982V96.6762H218.732V94.4262ZM218.732 92.1762H220.982V94.4262H218.732V92.1762ZM218.732 89.9262H220.982V92.1762H218.732V89.9262ZM218.732 96.6762H220.982V98.9262H218.732V96.6762ZM220.982 96.6762H223.232V98.9262H220.982V96.6762ZM220.982 98.9262H223.232V101.176H220.982V98.9262ZM220.982 101.176H223.232V103.426H220.982V101.176ZM218.732 101.176H220.982V103.426H218.732V101.176ZM218.732 98.9262H220.982V101.176H218.732V98.9262ZM229.982 101.176H232.232V103.426H229.982V101.176ZM232.232 98.9262H234.482V101.176H232.232V98.9262ZM232.232 96.6762H234.482V98.9262H232.232V96.6762ZM232.232 94.4262H234.482V96.6762H232.232V94.4262ZM232.232 92.1762H234.482V94.4262H232.232V92.1762ZM232.232 89.9262H234.482V92.1762H232.232V89.9262ZM232.232 87.6762H234.482V89.9262H232.232V87.6762ZM229.982 92.1762H232.232V94.4262H229.982V92.1762ZM229.982 94.4262H232.232V96.6762H229.982V94.4262ZM229.982 96.6762H232.232V98.9262H229.982V96.6762ZM229.982 98.9262H232.232V101.176H229.982V98.9262ZM229.982 89.9262H232.232V92.1762H229.982V89.9262ZM223.232 87.6762H225.482V89.9262H223.232V87.6762ZM225.482 87.6762H227.732V89.9262H225.482V87.6762ZM227.732 87.6762H229.982V89.9262H227.732V87.6762ZM227.732 85.4262H229.982V87.6762H227.732V85.4262ZM229.982 85.4262H232.232V87.6762H229.982V85.4262ZM229.982 87.6762H232.232V89.9262H229.982V87.6762ZM225.482 85.4262H227.732V87.6762H225.482V85.4262ZM223.232 101.176H225.482V103.426H223.232V101.176ZM225.482 101.176H227.732V103.426H225.482V101.176ZM227.732 101.176H229.982V103.426H227.732V101.176ZM227.732 98.9262H229.982V101.176H227.732V98.9262ZM225.482 98.9262H227.732V101.176H225.482V98.9262ZM223.232 98.9262H225.482V101.176H223.232V98.9262ZM218.732 103.426H220.982V105.676H218.732V103.426ZM220.982 103.426H223.232V105.676H220.982V103.426ZM220.982 105.676H223.232V107.926H220.982V105.676ZM218.732 105.676H220.982V107.926H218.732V105.676ZM236.738 80.9262H238.988V83.1762H236.738V80.9262ZM238.988 80.9262H241.238V83.1762H238.988V80.9262ZM238.988 83.1762H241.238V85.4262H238.988V83.1762ZM238.988 85.4262H241.238V87.6762H238.988V85.4262ZM238.988 87.6762H241.238V89.9262H238.988V87.6762ZM238.988 89.9262H241.238V92.1762H238.988V89.9262ZM238.988 92.1762H241.238V94.4262H238.988V92.1762ZM236.738 92.1762H238.988V94.4262H236.738V92.1762ZM236.738 94.4262H238.988V96.6762H236.738V94.4262ZM236.738 96.6762H238.988V98.9262H236.738V96.6762ZM236.738 98.9262H238.988V101.176H236.738V98.9262ZM236.738 101.176H238.988V103.426H236.738V101.176ZM238.988 101.176H241.238V103.426H238.988V101.176ZM238.988 98.9262H241.238V101.176H238.988V98.9262ZM238.988 96.6762H241.238V98.9262H238.988V96.6762ZM238.988 94.4262H241.238V96.6762H238.988V94.4262ZM236.738 89.9262H238.988V92.1762H236.738V89.9262ZM236.738 87.6762H238.988V89.9262H236.738V87.6762ZM236.738 85.4262H238.988V87.6762H236.738V85.4262ZM236.738 83.1762H238.988V85.4262H236.738V83.1762ZM248.006 85.4262H250.256V87.6762H248.006V85.4262ZM245.756 85.4262H248.006V87.6762H245.756V85.4262ZM245.756 87.6762H248.006V89.9262H245.756V87.6762ZM248.006 87.6762H250.256V89.9262H248.006V87.6762ZM250.256 85.4262H252.506V87.6762H250.256V85.4262ZM252.506 85.4262H254.756V87.6762H252.506V85.4262ZM254.756 85.4262H257.006V87.6762H254.756V85.4262ZM254.756 87.6762H257.006V89.9262H254.756V87.6762ZM252.506 87.6762H254.756V89.9262H252.506V87.6762ZM254.756 92.1762H257.006V94.4262H254.756V92.1762ZM257.006 87.6762H259.256V89.9262H257.006V87.6762ZM257.006 89.9262H259.256V92.1762H257.006V89.9262ZM257.006 92.1762H259.256V94.4262H257.006V92.1762ZM257.006 94.4262H259.256V96.6762H257.006V94.4262ZM257.006 96.6762H259.256V98.9262H257.006V96.6762ZM257.006 98.9262H259.256V101.176H257.006V98.9262ZM254.756 98.9262H257.006V101.176H254.756V98.9262ZM254.756 96.6762H257.006V98.9262H254.756V96.6762ZM254.756 94.4262H257.006V96.6762H254.756V94.4262ZM254.756 89.9262H257.006V92.1762H254.756V89.9262ZM252.506 98.9262H254.756V101.176H252.506V98.9262ZM254.756 101.176H257.006V103.426H254.756V101.176ZM252.506 101.176H254.756V103.426H252.506V101.176ZM250.256 101.176H252.506V103.426H250.256V101.176ZM248.006 101.176H250.256V103.426H248.006V101.176ZM245.756 101.176H248.006V103.426H245.756V101.176ZM245.756 98.9262H248.006V101.176H245.756V98.9262ZM248.006 98.9262H250.256V101.176H248.006V98.9262ZM245.756 96.6762H248.006V98.9262H245.756V96.6762ZM243.506 98.9262H245.756V101.176H243.506V98.9262ZM243.506 96.6762H245.756V98.9262H243.506V96.6762ZM243.506 94.4262H245.756V96.6762H243.506V94.4262ZM243.506 92.1762H245.756V94.4262H243.506V92.1762ZM243.506 89.9262H245.756V92.1762H243.506V89.9262ZM243.506 87.6762H245.756V89.9262H243.506V87.6762ZM245.756 89.9262H248.006V92.1762H245.756V89.9262ZM245.756 92.1762H248.006V94.4262H245.756V92.1762ZM245.756 94.4262H248.006V96.6762H245.756V94.4262ZM250.256 98.9262H252.506V101.176H250.256V98.9262ZM250.256 87.6762H252.506V89.9262H250.256V87.6762ZM261.512 87.6762H263.762V89.9262H261.512V87.6762ZM261.512 85.4262H263.762V87.6762H261.512V85.4262ZM263.762 85.4262H266.012V87.6762H263.762V85.4262ZM263.762 87.6762H266.012V89.9262H263.762V87.6762ZM263.762 89.9262H266.012V92.1762H263.762V89.9262ZM263.762 92.1762H266.012V94.4262H263.762V92.1762ZM263.762 94.4262H266.012V96.6762H263.762V94.4262ZM261.512 94.4262H263.762V96.6762H261.512V94.4262ZM261.512 92.1762H263.762V94.4262H261.512V92.1762ZM261.512 89.9262H263.762V92.1762H261.512V89.9262ZM261.512 96.6762H263.762V98.9262H261.512V96.6762ZM263.762 96.6762H266.012V98.9262H263.762V96.6762ZM263.762 98.9262H266.012V101.176H263.762V98.9262ZM263.762 101.176H266.012V103.426H263.762V101.176ZM261.512 101.176H263.762V103.426H261.512V101.176ZM261.512 98.9262H263.762V101.176H261.512V98.9262ZM266.012 87.6762H268.262V89.9262H266.012V87.6762ZM268.262 87.6762H270.512V89.9262H268.262V87.6762ZM270.512 87.6762H272.762V89.9262H270.512V87.6762ZM270.512 85.4262H272.762V87.6762H270.512V85.4262ZM268.262 85.4262H270.512V87.6762H268.262V85.4262ZM266.012 89.9262H268.262V92.1762H266.012V89.9262ZM272.762 87.6762H275.012V89.9262H272.762V87.6762ZM270.512 89.9262H272.762V92.1762H270.512V89.9262ZM281.762 85.4262H284.012V87.6762H281.762V85.4262ZM279.512 85.4262H281.762V87.6762H279.512V85.4262ZM279.512 87.6762H281.762V89.9262H279.512V87.6762ZM281.762 87.6762H284.012V89.9262H281.762V87.6762ZM284.012 85.4262H286.262V87.6762H284.012V85.4262ZM286.262 85.4262H288.512V87.6762H286.262V85.4262ZM288.512 85.4262H290.762V87.6762H288.512V85.4262ZM288.512 87.6762H290.762V89.9262H288.512V87.6762ZM286.262 87.6762H288.512V89.9262H286.262V87.6762ZM290.762 87.6762H293.012V89.9262H290.762V87.6762ZM290.762 89.9262H293.012V92.1762H290.762V89.9262ZM290.762 98.9262H293.012V101.176H290.762V98.9262ZM288.512 98.9262H290.762V101.176H288.512V98.9262ZM288.512 89.9262H290.762V92.1762H288.512V89.9262ZM286.262 98.9262H288.512V101.176H286.262V98.9262ZM288.512 101.176H290.762V103.426H288.512V101.176ZM286.262 101.176H288.512V103.426H286.262V101.176ZM284.012 101.176H286.262V103.426H284.012V101.176ZM281.762 101.176H284.012V103.426H281.762V101.176ZM279.512 101.176H281.762V103.426H279.512V101.176ZM279.512 98.9262H281.762V101.176H279.512V98.9262ZM281.762 98.9262H284.012V101.176H281.762V98.9262ZM279.512 96.6762H281.762V98.9262H279.512V96.6762ZM277.262 98.9262H279.512V101.176H277.262V98.9262ZM277.262 96.6762H279.512V98.9262H277.262V96.6762ZM277.262 94.4262H279.512V96.6762H277.262V94.4262ZM277.262 92.1762H279.512V94.4262H277.262V92.1762ZM277.262 89.9262H279.512V92.1762H277.262V89.9262ZM277.262 87.6762H279.512V89.9262H277.262V87.6762ZM279.512 89.9262H281.762V92.1762H279.512V89.9262ZM279.512 92.1762H281.762V94.4262H279.512V92.1762ZM279.512 94.4262H281.762V96.6762H279.512V94.4262ZM284.012 98.9262H286.262V101.176H284.012V98.9262ZM284.012 87.6762H286.262V89.9262H284.012V87.6762ZM288.512 92.1762H290.762V94.4262H288.512V92.1762ZM290.762 92.1762H293.012V94.4262H290.762V92.1762ZM281.762 94.4262H284.012V96.6762H281.762V94.4262ZM284.012 94.4262H286.262V96.6762H284.012V94.4262ZM286.262 94.4262H288.512V96.6762H286.262V94.4262ZM288.512 94.4262H290.762V96.6762H288.512V94.4262ZM290.762 94.4262H293.012V96.6762H290.762V94.4262ZM286.262 92.1762H288.512V94.4262H286.262V92.1762ZM284.012 92.1762H286.262V94.4262H284.012V92.1762ZM281.762 92.1762H284.012V94.4262H281.762V92.1762ZM304.25 98.9262H306.5V101.176H304.25V98.9262ZM306.5 98.9262H308.75V101.176H306.5V98.9262ZM306.5 101.176H308.75V103.426H306.5V101.176ZM304.25 101.176H306.5V103.426H304.25V101.176ZM304.25 85.4262H306.5V87.6762H304.25V85.4262ZM306.5 85.4262H308.75V87.6762H306.5V85.4262ZM304.25 87.6762H306.5V89.9262H304.25V87.6762ZM306.5 87.6762H308.75V89.9262H306.5V87.6762ZM313.268 80.9262V83.1762H311.018V80.9262H313.268ZM315.518 80.9262V83.1762H313.268V80.9262H315.518ZM315.518 83.1762V85.4262H313.268V83.1762H315.518ZM317.768 83.1762V85.4262H315.518V83.1762H317.768ZM317.768 85.4262V87.6762H315.518V85.4262H317.768ZM317.768 87.6762V89.9262H315.518V87.6762H317.768ZM320.018 87.6762V89.9262H317.768V87.6762H320.018ZM320.018 85.4262V87.6762H317.768V85.4262H320.018ZM320.018 89.9262V92.1762H317.768V89.9262H320.018ZM320.018 92.1762V94.4262H317.768V92.1762H320.018ZM320.018 94.4262V96.6762H317.768V94.4262H320.018ZM320.018 96.6762V98.9262H317.768V96.6762H320.018ZM317.768 96.6762V98.9262H315.518V96.6762H317.768ZM317.768 94.4262V96.6762H315.518V94.4262H317.768ZM317.768 92.1762V94.4262H315.518V92.1762H317.768ZM317.768 89.9262V92.1762H315.518V89.9262H317.768ZM313.268 105.676V107.926H311.018V105.676H313.268ZM315.518 105.676V107.926H313.268V105.676H315.518ZM315.518 103.426V105.676H313.268V103.426H315.518ZM317.768 103.426V105.676H315.518V103.426H317.768ZM317.768 101.176V103.426H315.518V101.176H317.768ZM317.768 98.9262V101.176H315.518V98.9262H317.768ZM320.018 98.9262V101.176H317.768V98.9262H320.018ZM320.018 101.176V103.426H317.768V101.176H320.018Z" fill="white"/>
</svg>
